# xmcd
#
# Track frame offsets:
# 150
# 14679
# 27011
# 40693
# 50650
# 67711
# 82154
# 96455
# 108720
# 124788
# 137085
# 149369
# 164278
# 178705
# 198182
# 212703
# 225040
# 238714
# 254792
# 267069
#
# Disc length: 3757 seconds
#
#
# Revision: 0
# Processed by: cddbd v1.5.1PL0 Copyright (c) Steve Scherf et al.
# Submitted via: FreeRIP 2.91 
#
DISCID=1c0eab14
DTITLE=Willie Pretorius - Around the world with Willie and the Cool Dudes
DYEAR=2005
DGENRE=Gospel
TTITLE0=He's got the whole World
TTITLE1=Thank you
TTITLE2=Jesus is my Hero
TTITLE3=There is a King
TTITLE4=C 4 J
TTITLE5=God is the only true God
TTITLE6=Make a melody
TTITLE7=The Kingdom of God
TTITLE8=I wanna be a Star
TTITLE9=This little light of mine
TTITLE10=I know that Jesus loves me
TTITLE11=Pure and holy passion
TTITLE12=Let us go and tell
TTITLE13=I worship
TTITLE14=He's got the whole world - Sing along
TTITLE15=Thank you - Sing along
TTITLE16=Jesus is my hero - Sing along
TTITLE17=I wanne be a star - Sing along
TTITLE18=This little light of mine - Sing along
TTITLE19=Pure and holy passion - Sing along
EXTD=
EXTT0=
EXTT1=
EXTT2=
EXTT3=
EXTT4=
EXTT5=
EXTT6=
EXTT7=
EXTT8=
EXTT9=
EXTT10=
EXTT11=
EXTT12=
EXTT13=
EXTT14=
EXTT15=
EXTT16=
EXTT17=
EXTT18=
EXTT19=
PLAYORDER=
